# xmcd
#
# Track frame offsets:
#	150
#	16942
#	31257
#	49505
#	66700
#	81187
#	95782
#	109404
#	128447
#	146262
#	164827
#	183407
#	198927
#	217410
#	233450
#	249765
#
# Disc length: 3601 seconds
#
# Revision: 1
# Processed by: cddbd v1.5.2PL0 Copyright (c) Steve Scherf et al.
# Submitted via: audiograbber 1.83.01
#
DISCID=df0e0f10
DTITLE=Die Höhner - Hier spielt die Musik
DYEAR=1998
DGENRE=Country
TTITLE0=Jetzt gehts los (Jahrmarkt Mix)
TTITLE1=Sibbe Daach de Woch
TTITLE2=Schön dat Du do bes
TTITLE3=Lenya
TTITLE4=Kumm loss mer uns verdrage
TTITLE5=Die Karawane zieht weiter dä Sultan hät Doosch
TTITLE6=Willi Wichtig
TTITLE7=he triff sich Gott un de Welt
TTITLE8=Der Narr
TTITLE9=Bürgerlied von 1845
TTITLE10=Wievell Dräum
TTITLE11=Der liebe Gott weiß, dass ich kein Engel bin
TTITLE12=Schöne jode morje
TTITLE13=Ich möcht Dich gern wiedersehen
TTITLE14=Der liebe Gott weiß, dass ich kein Engel bin
TTITLE15=Abschied
EXTD=
EXTT0=
EXTT1=
EXTT2=
EXTT3=
EXTT4=
EXTT5=
EXTT6=
EXTT7=
EXTT8=
EXTT9=
EXTT10=
EXTT11=
EXTT12=
EXTT13=
EXTT14=
EXTT15=
PLAYORDER=
